<svg xmlns="http://www.w3.org/2000/svg" version="1.1" viewBox="-5.0 -10.0 110.0 135.0">
  <path fill="#FF0000" d="m38.969 90.055c-1.5938-3.6797-1.957-6.793-1.2617-9.8555 1.1406-5.0156 5.082-9.5547 11.078-16.113 0.47656-0.59766 1.3477-0.71875 1.9727-0.26172 4.7773 3.5117 9.6953 7.4453 11.531 13.008 1.4648 4.4492 0.91797 9.7852-3.3086 16.504 11.207-9.9375 16.164-21.848 7.0117-33.957-4.2031-5.5625-10.551-9.9336-16.605-12.633-12.965 10.668-29.82 22.848-10.418 43.309zm-21.305-62.102c5.3867 3.0742 15.078 9.6836 18.766 14.32-0.039063-3.3047-2.2383-5.1406-3.3477-6.2266 8.2773-8.9492 12-19.176 16.047-30.207 11.785 7.3203 13.426 17.34 14.695 25.109 0.625 3.8164 1.5586 10.051 4.6719 11.461 5.1133 2.3203 8.3203-8.8477 9.1016-12.645 20.617 23.695 13.371 53.523-15.277 64.391 4.625-4.375 7.6445-8.6602 9.3867-12.777 7.2461-17.125-7.5117-31.512-22.012-37.633-0.51172-0.21484-1.0781-0.10938-1.4766 0.22266l-0.003906-0.003906c-5.1016 4.2695-10.652 8.3164-15.051 13.742-7.3086 9.0195-10.195 20.48 4.7539 35.402-5.7031-2.5156-15.094-7.0898-18.852-10.039-18.793-14.773-0.25391-35.391-1.4023-55.117z" fill-rule="evenodd"/>
</svg>